<?xml version="1.0" standalone="no"?>
<!DOCTYPE svg PUBLIC "-//W3C//DTD SVG 20010904//EN"
 "http://www.w3.org/TR/2001/REC-SVG-20010904/DTD/svg10.dtd">
<svg version="1.0" xmlns="http://www.w3.org/2000/svg"
 width="70.000000pt" height="70.000000pt" viewBox="0 0 70.000000 70.000000"
 preserveAspectRatio="xMidYMid meet">
<metadata>
Created by potrace 1.11, written by Peter Selinger 2001-2013
</metadata>
<g transform="translate(0.000000,70.000000) scale(0.100000,-0.100000)"
fill="#000000" stroke="none">
<path d="M260 674 c-94 -26 -171 -88 -218 -178 -24 -45 -27 -62 -27 -146 0
-84 3 -102 28 -152 32 -65 99 -130 167 -162 35 -16 65 -21 135 -21 82 0 97 3
156 33 116 57 181 164 183 302 0 90 -29 163 -93 233 -78 84 -218 123 -331 91z
m190 -89 c35 -18 53 -49 45 -75 -11 -34 -37 -41 -93 -23 -45 14 -55 15 -88 2
-51 -19 -75 -63 -76 -134 -1 -55 16 -95 51 -122 20 -15 100 -17 137 -3 21 8
32 7 51 -5 32 -21 27 -61 -10 -89 -24 -18 -43 -21 -117 -21 -82 0 -91 2 -132
30 -95 66 -129 220 -73 332 29 58 46 76 101 103 49 24 161 27 204 5z"/>
</g>
</svg>
